# xmcd
#
# Track frame offsets:
#	150
#	21290
#	41662
#
# Disc length: 718 seconds
#
# Revision: 1
# Processed by: cddbd v1.4PL0 Copyright (c) Steve Scherf et al.
# Submitted via: audiograbber 1.81.03
#
DISCID=1e02cc03
DTITLE=Arnold - Windsor Park EP
DYEAR=1998
DGENRE=
TTITLE0=Windsor Park
TTITLE1=Flightless Bird
TTITLE2=Pocket Rocket
EXTD=
EXTT0=
EXTT1=
EXTT2=
PLAYORDER=
